HIERARCHY
ROOT Hips
{
	OFFSET	0.00	0.00	0.00
	CHANNELS 6 Xposition Yposition Zposition Zrotation Xrotation Yrotation
	JOINT LeftUpLeg
	{
		OFFSET	 0.126116	-0.014019	-0.065224
		CHANNELS 3 Zrotation Xrotation Yrotation
		JOINT LeftLeg
		{
			OFFSET	 0.000000	 0.000000	 0.569914
			CHANNELS 3 Zrotation Xrotation Yrotation
			JOINT LeftFoot
			{
				OFFSET	 0.000000	 0.000000	 0.544423
				CHANNELS 3 Zrotation Xrotation Yrotation
				JOINT LeftToeBase
				{
					OFFSET	 0.000000	 0.000000	 0.207117
					CHANNELS 3 Zrotation Xrotation Yrotation
					End Site
					{
						OFFSET	 0.000000	 0.000000	 0.207117
					}
				}
			}
		}
	}
	JOINT RightUpLeg
	{
		OFFSET	-0.124023	-0.008373	-0.065224
		CHANNELS 3 Zrotation Xrotation Yrotation
		JOINT RightLeg
		{
			OFFSET	 0.000000	 0.000000	 0.570047
			CHANNELS 3 Zrotation Xrotation Yrotation
			JOINT RightFoot
			{
				OFFSET	 0.000000	 0.000000	 0.544354
				CHANNELS 3 Zrotation Xrotation Yrotation
				JOINT RightToeBase
				{
					OFFSET	 0.000000	 0.000000	 0.207540
					CHANNELS 3 Zrotation Xrotation Yrotation
					End Site
					{
						OFFSET	 0.000000	 0.000000	 0.207540
					}
				}
			}
		}
	}
	JOINT Spine
	{
		OFFSET	 0.000184	-0.007763	 0.117403
		CHANNELS 3 Zrotation Xrotation Yrotation
		JOINT Spine1
		{
			OFFSET	 0.000000	 0.000000	 0.137269
			CHANNELS 3 Zrotation Xrotation Yrotation
			JOINT Spine2
			{
				OFFSET	 0.000000	 0.000000	 0.156879
				CHANNELS 3 Zrotation Xrotation Yrotation
				JOINT LeftShoulder
				{
					OFFSET	 0.080501	-0.002496	 0.160144
					CHANNELS 3 Zrotation Xrotation Yrotation
					JOINT LeftArm
					{
						OFFSET	 0.000000	 0.000000	 0.164363
						CHANNELS 3 Zrotation Xrotation Yrotation
						JOINT LeftForeArm
						{
							OFFSET	 0.000000	 0.000000	 0.364576
							CHANNELS 3 Zrotation Xrotation Yrotation
							JOINT LeftHand
							{
								OFFSET	 0.000000	 0.000000	 0.360812
								CHANNELS 3 Zrotation Xrotation Yrotation
								JOINT LeftHandIndex1
								{
									OFFSET	 0.000000	 0.000000	 0.086006
									CHANNELS 3 Zrotation Xrotation Yrotation
									JOINT LeftHandIndex2
									{
										OFFSET	 0.000000	 0.000000	 0.047236
										CHANNELS 3 Zrotation Xrotation Yrotation
										JOINT LeftHandIndex3
										{
											OFFSET	-0.004284	-0.000551	 0.038166
											CHANNELS 3 Zrotation Xrotation Yrotation
											End Site
											{
												OFFSET	-0.004284	-0.000551	 0.038166
											}
										}
									}
								}
							}
						}
					}
				}
				JOINT Neck
				{
					OFFSET	 0.000000	 0.000000	 0.176489
					CHANNELS 3 Zrotation Xrotation Yrotation
					JOINT Head
					{
						OFFSET	 0.000000	-0.001747	 0.077940
						CHANNELS 3 Zrotation Xrotation Yrotation
						End Site
						{
							OFFSET	 0.000000	-0.001747	 0.077940
						}
					}
				}
				JOINT RightShoulder
				{
					OFFSET	-0.080363	 0.000306	 0.159706
					CHANNELS 3 Zrotation Xrotation Yrotation
					JOINT RightArm
					{
						OFFSET	 0.000000	 0.000000	 0.164196
						CHANNELS 3 Zrotation Xrotation Yrotation
						JOINT RightForeArm
						{
							OFFSET	 0.000000	 0.000000	 0.365611
							CHANNELS 3 Zrotation Xrotation Yrotation
							JOINT RightHand
							{
								OFFSET	 0.000000	 0.000000	 0.360648
								CHANNELS 3 Zrotation Xrotation Yrotation
								JOINT RightHandIndex1
								{
									OFFSET	 0.000000	 0.000000	 0.069977
									CHANNELS 3 Zrotation Xrotation Yrotation
									JOINT RightHandIndex2
									{
										OFFSET	 0.000000	 0.000000	 0.052305
										CHANNELS 3 Zrotation Xrotation Yrotation
										JOINT RightHandIndex3
										{
											OFFSET	 0.009002	-0.000782	 0.042196
											CHANNELS 3 Zrotation Xrotation Yrotation
											End Site
											{
												OFFSET	 0.009002	-0.000782	 0.042196
											}
										}
									}
								}
							}
						}
					}
				}
			}
		}
	}
}
MOTION
Frames:    4
Frame Time: 0.03333334
-0.877689	-7.962106	 0.697739	-21.002320	 1.190158	 0.520588	 2.178668	-33.786370	 172.366800	-5.927367	-67.929920	-6.406335	 177.033600	 86.940660	-179.860200	-2.329720	 36.901700	-0.195484	-0.146670	-35.338990	-177.485100	 1.700618	-72.413430	 4.325444	-177.791700	 85.524770	 179.445400	 2.404827	 21.422570	-0.144718	 16.606600	 14.426700	 1.304378	-0.072093	 7.821156	-1.935111	 0.159619	 4.892914	 0.003745	-135.049400	 89.521530	-133.358300	 48.981940	 61.198430	-77.245790	 10.774130	-19.855550	-33.900400	 9.031539	-57.617490	 3.777523	-3.812334	 37.924440	-2.927599	-2.450526	 36.184240	 0.754587	-1.378229	 35.397820	-2.634230	 1.605801	 2.473647	-3.129550	 0.632161	 7.872004	 2.985909	 94.009040	 85.958140	 171.399800	-54.112810	 70.531380	 73.356400	-32.037360	-29.481910	 30.427990	-29.050310	-58.956930	 3.981587	 6.437017	 35.671460	-0.771858	 2.830251	 35.756010	-7.813440	-2.350882	 35.473990	 5.254307
-0.872590	-7.959378	 0.717503	-22.430370	 3.789476	 0.149813	 2.665792	-35.046290	 172.828800	-4.588659	-65.100750	-4.564978	 175.250200	 88.109180	-177.579300	-2.350055	 34.466220	-0.136112	 0.743788	-36.560180	-177.449800	 1.014697	-68.722210	 4.167155	-176.333200	 86.468480	 178.227600	 2.406410	 20.121870	-0.170687	 11.612800	 14.403100	 1.050145	 1.635577	 7.399435	-1.921215	 2.428679	 4.538859	 0.064527	-123.336700	 89.389310	-145.103700	 45.939590	 61.043910	-75.314270	 12.931450	-21.529260	-33.418280	 10.670270	-55.456910	 4.394032	-3.812334	 37.924440	-2.927599	-2.450526	 36.184240	 0.754587	-1.378229	 35.397820	-2.634230	 1.885429	 2.153186	-2.999804	 1.412484	 7.577348	 3.813813	 94.323950	 86.037210	 170.898800	-54.023910	 71.187940	 72.825050	-34.317240	-30.815390	 30.067600	-31.048450	-56.875680	 2.865051	 6.437017	 35.671460	-0.771858	 2.830251	 35.756010	-7.813440	-2.350882	 35.473990	 5.254307
-0.869041	-7.958295	 0.729323	-23.485310	 5.227010	-0.223317	 3.186135	-35.516380	 173.309600	-4.262282	-63.359010	-3.772035	 171.895700	 88.863060	-173.983000	-2.359799	 33.114000	-0.104306	 1.415757	-37.495090	-177.155100	-0.117008	-67.197000	 3.514613	-174.100000	 87.481060	 175.824200	 2.406872	 19.599920	-0.181032	 8.091381	 14.575700	 1.038194	 2.877799	 7.258243	-1.867950	 3.958980	 4.354861	 0.111584	-119.989800	 89.330020	-148.461600	 44.129800	 60.861030	-74.517170	 13.963970	-22.465640	-33.130780	 11.244620	-53.018360	 4.373038	-3.812334	 37.924440	-2.927599	-2.450526	 36.184240	 0.754587	-1.378229	 35.397820	-2.634230	 2.085880	 1.982257	-2.896332	 1.912802	 7.384543	 4.314086	 94.442270	 86.070010	 170.720400	-53.905640	 71.712210	 72.281060	-35.791520	-31.483510	 29.676550	-32.349120	-54.478780	 2.418345	 6.437017	 35.671460	-0.771858	 2.830251	 35.756010	-7.813440	-2.350882	 35.473990	 5.254307
-0.865689	-7.958097	 0.741280	-24.594750	 6.572195	-0.612648	 3.973819	-35.655610	 173.875500	-4.120624	-61.377150	-2.972729	 152.903000	 89.641180	-154.704800	-2.366902	 32.023040	-0.079201	 1.892889	-38.275180	-176.676100	-1.668600	-65.446950	 2.322823	-170.431800	 88.412300	 171.713100	 2.407123	 19.234020	-0.188263	 3.293641	 15.019900	 1.063140	 4.418059	 7.275085	-1.810590	 5.838723	 4.228244	 0.171112	-118.289800	 89.301150	-150.199900	 42.247470	 60.852130	-74.365960	 15.518040	-23.584430	-32.495140	 12.413340	-48.761440	 3.888048	-3.812334	 37.924440	-2.927599	-2.450526	 36.184240	 0.754587	-1.378229	 35.397820	-2.634230	 2.260807	 1.860316	-2.802914	 2.499952	 7.234633	 4.537448	 94.563100	 86.113600	 170.558500	-53.426590	 72.460360	 71.276470	-37.769020	-31.975810	 28.895340	-34.138910	-50.254700	 2.246869	 6.437017	 35.671460	-0.771858	 2.830251	 35.756010	-7.813440	-2.350882	 35.473990	 5.254307
